# xmcd
#
# Track frame offsets: 
#        150
#        44927
#        72031
#        107028
#        132529
#        147564
#        174664
#        218691
#        258105
#        293089
#
# Disc length: 4307 seconds
#
# Revision: 0
# Processed by: cddbd v1.5.2PL0 Copyright (c) Steve Scherf et al.
# Submitted via: ExactAudioCopy v0.95b4
#
DISCID=a110d10a
DTITLE=Van Morrison - Astral weeks - Live at the Hollywood bowl
DYEAR=2009
DGENRE=Blues/Rock
TTITLE0=Astral Weeks - I believe I've transcended
TTITLE1=Beside you
TTITLE2=Slim slow slider - I start breaking down
TTITLE3=Sweet thing
TTITLE4=The way young lovers do
TTITLE5=Cyprus avenue - You came walking down
TTITLE6=Ballerina
TTITLE7=Madame George
TTITLE8=Listen to the lion - The lion speaks
TTITLE9=Common one
EXTD=
EXTT0=
EXTT1=
EXTT2=
EXTT3=
EXTT4=
EXTT5=
EXTT6=
EXTT7=
EXTT8=
EXTT9=
PLAYORDER=
